<svg width="1024" height="1024" viewBox="0 0 1024 1024" fill="none" xmlns="http://www.w3.org/2000/svg">
<rect width="1024" height="1024" fill="white"/>
<g filter="url(#filter0_d)">
<path d="M597.113 167.058C609.663 141.383 643.28 141.383 655.83 167.058L944.503 757.572C956.378 781.867 940.307 811.25 915.144 811.25H337.8C312.638 811.25 296.566 781.867 308.441 757.572L597.113 167.058Z" fill="#42B540"/>
</g>
<g filter="url(#filter1_d)">
<path d="M314.323 282.697C327.021 257.739 359.808 257.739 372.506 282.697L613.239 755.899C625.606 780.204 609.559 810.11 584.15 810.11H102.68C77.2716 810.11 61.2235 780.204 73.5889 755.899L314.323 282.697Z" fill="#112ECA" fill-opacity="0.7"/>
</g>
<defs>
<filter id="filter0_d" x="300.453" y="147.802" width="652.038" height="671.448" filterUnits="userSpaceOnUse" color-interpolation-filters="sRGB">
<feFlood flood-opacity="0" result="BackgroundImageFix"/>
<feColorMatrix in="SourceAlpha" type="matrix" values="0 0 0 0 0 0 0 0 0 0 0 0 0 0 0 0 0 0 127 0"/>
<feOffset dy="4"/>
<feGaussianBlur stdDeviation="2"/>
<feColorMatrix type="matrix" values="0 0 0 0 0 0 0 0 0 0 0 0 0 0 0 0 0 0 0.25 0"/>
<feBlend mode="normal" in2="BackgroundImageFix" result="effect1_dropShadow"/>
<feBlend mode="normal" in="SourceGraphic" in2="effect1_dropShadow" result="shape"/>
</filter>
<filter id="filter1_d" x="65.3313" y="263.978" width="556.166" height="554.132" filterUnits="userSpaceOnUse" color-interpolation-filters="sRGB">
<feFlood flood-opacity="0" result="BackgroundImageFix"/>
<feColorMatrix in="SourceAlpha" type="matrix" values="0 0 0 0 0 0 0 0 0 0 0 0 0 0 0 0 0 0 127 0"/>
<feOffset dy="4"/>
<feGaussianBlur stdDeviation="2"/>
<feColorMatrix type="matrix" values="0 0 0 0 0 0 0 0 0 0 0 0 0 0 0 0 0 0 0.25 0"/>
<feBlend mode="normal" in2="BackgroundImageFix" result="effect1_dropShadow"/>
<feBlend mode="normal" in="SourceGraphic" in2="effect1_dropShadow" result="shape"/>
</filter>
</defs>
</svg>
